<svg version="1.1" id="Layer_1" xmlns="http://www.w3.org/2000/svg" xmlns:xlink="http://www.w3.org/1999/xlink" x="0px" y="0px"
	 width="100%" viewBox="0 0 870 440" enable-background="new 0 0 870 440" xml:space="preserve">
<path fill="#FEFEFE" opacity="1.000000" stroke="none" 
	d="
M602.000000,441.000000 
	C501.312439,441.000000 400.624878,441.000000 299.754883,440.720886 
	C298.346008,439.341034 297.182404,438.159302 295.883850,437.151428 
	C264.693787,412.942444 240.281601,383.200989 222.856613,347.751801 
	C222.146545,346.307190 221.529831,344.816681 220.531540,342.595276 
	C363.970978,342.595276 506.696259,342.595276 649.930664,342.595276 
	C649.930664,255.489304 649.930664,168.970184 649.930664,81.264114 
	C651.394104,83.090240 652.114746,83.921944 652.762268,84.807114 
	C697.386658,145.808365 713.076660,213.581390 698.286682,287.641571 
	C685.986694,349.233398 653.705200,398.955017 604.310486,437.648834 
	C603.290955,438.447540 602.759277,439.869049 602.000000,441.000000 
z"/>
<path fill="#014C99" opacity="1.000000" stroke="none" 
	d="
M400.000000,1.000000 
	C448.354218,1.000000 496.708466,1.000000 545.452698,1.337965 
	C546.727783,2.379235 547.612854,3.082539 548.480713,4.266922 
	C548.463562,107.492081 548.463562,210.236160 548.463562,313.154724 
	C498.823944,313.154724 449.796661,313.154724 400.320770,313.154724 
	C400.320770,310.994537 400.321442,309.192871 400.320709,307.391205 
	C400.289093,228.415985 400.271881,149.440750 400.216461,70.465546 
	C400.200226,47.310326 400.075165,24.155180 400.000000,1.000000 
z"/>
<path fill="#FCDA01" opacity="1.000000" stroke="none" 
	d="
M399.533142,1.000000 
	C400.075165,24.155180 400.200226,47.310326 400.216461,70.465546 
	C400.271881,149.440750 400.289093,228.415985 400.320709,307.391205 
	C400.321442,309.192871 400.320770,310.994537 400.320770,313.154724 
	C449.796661,313.154724 498.823944,313.154724 548.463562,313.154724 
	C548.463562,210.236160 548.463562,107.492081 548.823975,4.314808 
	C550.429382,4.332462 551.708191,4.707690 552.914612,5.245201 
	C583.269165,18.769278 609.897034,37.591305 633.051270,61.413841 
	C635.671326,64.109512 636.817688,66.797249 636.812866,70.616028 
	C636.706665,154.942688 636.731689,239.269501 636.731689,323.596283 
	C636.731689,325.382965 636.731689,327.169647 636.731689,329.274048 
	C500.865479,329.274048 365.502228,329.274048 229.831604,329.274048 
	C229.831604,327.433655 229.831589,325.948608 229.831589,324.463531 
	C229.831650,217.971802 229.831131,111.480064 229.838791,4.988327 
	C229.838898,3.658881 229.943939,2.329442 230.000000,1.000000 
	C235.354935,1.000000 240.709854,1.000000 246.415665,1.456852 
	C246.722443,104.691505 246.677414,207.469299 246.646576,310.247101 
	C246.646240,311.368439 246.831497,312.489838 246.916092,313.451721 
	C292.732574,313.451721 338.240601,313.451721 384.151093,313.451721 
	C384.151093,310.919067 384.150146,309.106689 384.151245,307.294281 
	C384.210846,206.848389 384.272247,106.402504 384.316589,5.956604 
	C384.317322,4.304450 384.110138,2.652204 384.000000,1.000000 
	C389.022095,1.000000 394.044189,1.000000 399.533142,1.000000 
z"/>
<path fill="#FBDA00" opacity="1.000000" stroke="none" 
	d="
M773.000000,441.000000 
	C757.645752,441.000000 742.291565,441.000000 726.464966,440.640381 
	C721.413879,430.070038 713.643799,422.935699 703.559753,418.675446 
	C699.456421,416.941925 694.348083,415.929138 690.038086,416.644226 
	C675.299072,419.089630 665.959900,429.283081 658.000000,441.000000 
	C646.312439,441.000000 634.624878,441.000000 622.445618,440.652435 
	C623.189392,439.188873 624.430359,438.078888 625.659485,436.956024 
	C692.883118,375.546509 724.135376,299.490814 714.847961,208.769028 
	C706.271240,124.990402 664.593994,60.186939 594.896179,13.267903 
	C588.437988,8.920377 581.640137,5.077315 575.000000,1.000005 
	C589.354248,1.000000 603.708435,1.000000 618.403320,1.376036 
	C623.364929,5.524786 627.985901,9.297500 633.385193,13.705700 
	C635.964539,8.751290 637.982239,4.875640 640.000000,0.999995 
	C647.020935,1.000000 654.041931,1.000000 661.195679,1.249358 
	C666.846069,7.400482 672.363647,13.302247 677.899719,19.223862 
	C674.682312,22.491137 671.565369,25.656382 667.973999,29.303427 
	C660.951050,22.201767 653.994690,15.167448 647.416321,8.515347 
	C644.082092,11.599666 641.078613,14.378011 638.762207,16.520777 
	C649.600281,27.784023 660.291809,38.894989 671.111694,50.315956 
	C674.394348,54.280281 677.715698,57.807022 680.640991,61.636333 
	C682.421631,63.967178 684.019714,64.047844 686.569763,63.030552 
	C699.094482,58.034008 711.689514,53.213013 724.281250,48.386063 
	C725.957153,47.743649 727.755615,47.421013 729.497375,46.950287 
	C729.634827,47.270809 729.772339,47.591331 729.909851,47.911854 
	C717.546814,58.730602 705.183777,69.549347 692.684326,80.487473 
	C696.784363,87.327629 700.680908,93.828239 704.637146,100.428444 
	C720.591919,94.382652 735.997742,88.544891 751.403503,82.707123 
	C751.612427,83.105003 751.821289,83.502884 752.030151,83.900757 
	C739.387756,94.628601 726.745422,105.356438 713.979187,116.189354 
	C717.276733,121.676888 720.330200,126.758194 723.649231,132.281357 
	C740.932434,115.980476 757.850952,100.023506 774.917480,83.926987 
	C770.713318,76.884071 766.745850,70.237846 762.749084,63.542362 
	C746.692566,69.693291 731.234131,75.615112 715.775757,81.536934 
	C715.605042,81.118019 715.434326,80.699104 715.263611,80.280190 
	C727.841248,69.250206 740.418823,58.220230 753.012329,47.176296 
	C748.763062,40.083324 744.853149,33.556755 740.883972,26.931370 
	C721.135010,33.958580 701.874573,40.861206 682.564331,47.621483 
	C680.113770,48.479408 677.402344,48.592167 674.903931,48.714508 
	C689.319885,34.109703 703.671814,19.868481 717.912170,5.516499 
	C719.010132,4.409914 719.322449,2.523793 720.000000,0.999998 
	C729.687561,1.000000 739.375122,1.000000 749.487427,1.350437 
	C750.703491,2.770951 751.479614,3.852590 752.288208,4.909455 
	C796.948730,63.286106 823.174866,129.051971 829.639893,202.236084 
	C837.059082,286.220581 818.521790,364.401123 774.542542,436.456116 
	C773.729431,437.788269 773.501160,439.477417 773.000000,441.000000 
M763.277222,178.783401 
	C776.201172,175.146439 789.125183,171.509476 802.288818,167.805069 
	C800.559814,161.703415 798.990845,156.166336 797.312805,150.244598 
	C788.413757,152.686295 779.980408,155.000198 771.614807,157.295517 
	C768.268188,149.760773 768.898071,146.287018 774.871521,141.743210 
	C779.370911,138.320724 784.292297,135.455109 788.820496,132.067139 
	C789.978577,131.200638 791.205872,129.114868 790.948486,127.896149 
	C789.858948,122.737465 788.221619,117.694481 786.537292,111.734444 
	C776.615356,120.009041 764.872620,124.841156 757.505432,135.292496 
	C750.787231,127.699722 744.266174,126.015167 735.704285,129.626465 
	C728.693542,132.583496 724.500671,139.018875 726.180847,148.060730 
	C728.564758,160.888916 732.413696,173.444855 735.566650,185.842194 
	C736.826477,185.903641 737.173828,186.004776 737.470642,185.922806 
	C745.814026,183.618973 754.152222,181.296616 763.277222,178.783401 
M790.771423,274.905518 
	C796.071594,284.130585 791.465637,293.096405 780.938721,292.939331 
	C772.824341,292.818237 764.724915,291.393250 756.628723,290.461792 
	C749.610229,289.654297 742.605713,288.725616 735.373657,287.822845 
	C734.570068,294.255768 733.859619,299.943390 733.108276,305.958221 
	C748.657593,307.939209 763.633606,310.191101 778.686218,311.654663 
	C790.469238,312.800293 799.760986,306.903381 803.506104,295.679321 
	C805.570129,289.493347 806.706360,282.648315 806.547058,276.142365 
	C806.209351,262.355011 798.249207,254.115570 784.609192,251.855255 
	C781.161743,251.283966 777.694153,250.825027 774.227661,250.378632 
	C763.219177,248.961105 752.206787,247.573853 740.816162,246.126648 
	C740.028503,252.320236 739.301941,258.032867 738.552856,263.923004 
	C740.094788,264.295746 741.182068,264.667267 742.298767,264.811737 
	C753.525696,266.264160 764.814087,267.348328 775.961731,269.257111 
	C780.871277,270.097809 785.497375,272.593781 790.771423,274.905518 
M738.114319,211.362030 
	C738.877075,220.894363 739.639832,230.426682 740.429138,240.290588 
	C763.595154,238.529495 786.099487,236.818695 809.033997,235.075211 
	C807.751038,218.383392 806.509460,202.229752 805.239258,185.703674 
	C800.566345,186.014847 796.536987,186.283173 792.343811,186.562408 
	C793.093079,197.405472 793.785706,207.430115 794.496399,217.715057 
	C789.068176,218.136948 784.327515,218.505386 779.182861,218.905243 
	C778.387817,209.324280 777.625061,200.132584 776.836121,190.625214 
	C772.275635,190.929367 768.241943,191.198380 763.966797,191.483505 
	C764.693909,201.351715 765.361694,210.415207 766.055481,219.830704 
	C761.193726,220.241364 756.814636,220.611237 752.049133,221.013763 
	C751.217407,210.777313 750.428406,201.066818 749.602844,190.906082 
	C745.144104,191.283447 741.112671,191.624634 736.743835,191.994370 
	C737.209717,198.526764 737.634155,204.478317 738.114319,211.362030 
M749.809204,368.662231 
	C759.833313,372.139587 769.857422,375.616974 780.244812,379.220367 
	C785.749023,363.477783 791.108398,348.149445 796.593750,332.460754 
	C792.254272,330.959503 788.410889,329.629883 784.317444,328.213745 
	C780.785889,338.176270 777.413696,347.689301 773.905762,357.585205 
	C768.842773,355.781708 764.252380,354.146576 759.398010,352.417389 
	C762.561584,343.240204 765.528931,334.632111 768.642700,325.599396 
	C764.388733,324.135651 760.560730,322.818481 756.465454,321.409332 
	C753.173218,330.647430 750.070862,339.352539 746.919800,348.194336 
	C742.170227,346.510040 738.012634,345.035675 733.635010,343.483276 
	C737.016113,333.706635 740.197205,324.508301 743.467834,315.051117 
	C739.169739,313.530304 735.444641,312.212219 731.254944,310.729767 
	C725.911499,326.051910 720.670532,341.080139 715.279236,356.539612 
	C726.828552,360.575043 737.957703,364.463654 749.809204,368.662231 
M703.065857,378.567261 
	C699.161865,385.464325 695.257874,392.361389 691.202942,399.525055 
	C711.368164,410.981812 730.999023,422.135040 751.026978,433.513824 
	C754.138733,428.011322 757.029358,422.899811 760.016968,417.616791 
	C751.752319,412.870605 743.993958,408.415192 736.088257,403.875122 
	C740.543701,395.939087 744.742554,388.459991 749.055054,380.778564 
	C745.053284,378.522003 741.516479,376.527618 737.801941,374.433044 
	C733.260132,382.397247 729.071411,389.742340 724.678345,397.445740 
	C720.125061,394.844666 715.905884,392.434418 711.616943,389.984314 
	C716.370911,381.554993 720.745361,373.798523 725.208862,365.884155 
	C721.233948,363.629089 717.801147,361.681519 713.970398,359.508179 
	C710.331909,365.865479 706.880432,371.896118 703.065857,378.567261 
z"/>
<path fill="#FEFEFE" opacity="1.000000" stroke="none" 
	d="
M113.000000,441.000000 
	C75.690948,441.000000 38.381897,441.000000 1.036423,441.000000 
	C1.036423,294.453003 1.036423,147.906021 1.036423,1.000000 
	C41.020180,1.000000 81.041428,1.000000 121.351227,1.332610 
	C123.801430,4.580436 125.963081,7.495652 128.124802,10.410966 
	C126.483986,12.844870 124.992485,15.048933 123.509293,17.258579 
	C86.381989,72.570709 64.275505,133.366608 58.256001,199.693909 
	C50.569412,284.390350 68.270081,363.610260 111.384155,437.044220 
	C112.097931,438.259949 112.469009,439.676941 113.000000,441.000000 
z"/>
<path fill="#070604" opacity="1.000000" stroke="none" 
	d="
M113.466110,441.000000 
	C112.469009,439.676941 112.097931,438.259949 111.384155,437.044220 
	C68.270081,363.610260 50.569412,284.390350 58.256001,199.693909 
	C64.275505,133.366608 86.381989,72.570709 123.509293,17.258579 
	C124.992485,15.048933 126.483986,12.844870 128.124802,10.410966 
	C125.963081,7.495652 123.801430,4.580436 121.819885,1.332610 
	C127.022095,1.000000 132.044189,1.000000 137.623291,1.326122 
	C161.050461,30.581640 186.940491,56.444344 216.796143,80.324966 
	C216.796143,76.723778 216.791412,74.763359 216.796890,72.802979 
	C216.863724,48.868652 216.932037,24.934326 217.000000,1.000000 
	C221.024551,1.000000 225.049088,1.000000 229.536819,1.000000 
	C229.943939,2.329442 229.838898,3.658881 229.838791,4.988327 
	C229.831131,111.480064 229.831650,217.971802 229.831589,324.463531 
	C229.831589,325.948608 229.831604,327.433655 229.831604,329.274048 
	C365.502228,329.274048 500.865479,329.274048 636.731689,329.274048 
	C636.731689,327.169647 636.731689,325.382965 636.731689,323.596283 
	C636.731689,239.269501 636.706665,154.942688 636.812866,70.616028 
	C636.817688,66.797249 635.671326,64.109512 633.051270,61.413841 
	C609.897034,37.591305 583.269165,18.769278 552.914612,5.245201 
	C551.708191,4.707690 550.429382,4.332462 548.841125,3.833730 
	C547.612854,3.082539 546.727783,2.379235 545.921387,1.337965 
	C555.354248,1.000000 564.708435,1.000000 574.531372,1.000005 
	C581.640137,5.077315 588.437988,8.920377 594.896179,13.267903 
	C664.593994,60.186939 706.271240,124.990402 714.847961,208.769028 
	C724.135376,299.490814 692.883118,375.546509 625.659485,436.956024 
	C624.430359,438.078888 623.189392,439.188873 621.976929,440.652435 
	C615.645569,441.000000 609.291199,441.000000 602.468384,441.000000 
	C602.759277,439.869049 603.290955,438.447540 604.310486,437.648834 
	C653.705200,398.955017 685.986694,349.233398 698.286682,287.641571 
	C713.076660,213.581390 697.386658,145.808365 652.762268,84.807114 
	C652.114746,83.921944 651.394104,83.090240 649.930664,81.264114 
	C649.930664,168.970184 649.930664,255.489304 649.930664,342.595276 
	C506.696259,342.595276 363.970978,342.595276 220.531540,342.595276 
	C221.529831,344.816681 222.146545,346.307190 222.856613,347.751801 
	C240.281601,383.200989 264.693787,412.942444 295.883850,437.151428 
	C297.182404,438.159302 298.346008,439.341034 299.286255,440.720886 
	C292.645599,441.000000 286.291199,441.000000 279.423065,440.661621 
	C278.037750,439.549133 277.155884,438.786285 276.296143,437.999298 
	C200.007034,368.171417 170.990814,282.410583 190.072800,180.711288 
	C194.581207,156.683319 203.457520,134.027435 214.905548,112.408867 
	C218.955978,104.760010 217.510345,97.665573 210.942612,92.463066 
	C185.399155,72.229202 161.973724,49.781876 140.607422,25.181068 
	C139.451675,23.850363 138.251556,22.558201 136.814377,20.961849 
	C135.324936,23.115700 134.170929,24.723156 133.079315,26.371929 
	C98.109901,79.190132 77.102219,137.101425 71.307701,200.160339 
	C63.510651,285.011902 81.896622,364.000580 126.443634,436.782776 
	C127.210938,438.036407 127.492027,439.587646 128.000000,441.000000 
	C123.310745,441.000000 118.621490,441.000000 113.466110,441.000000 
M202.055313,186.568298 
	C192.858490,235.331650 200.482437,311.760345 216.569336,331.841003 
	C216.569336,268.340332 216.569336,204.872299 216.569336,141.404282 
	C209.662292,155.550919 205.540085,170.516968 202.055313,186.568298 
z"/>
<path fill="#FCDA00" opacity="1.000000" stroke="none" 
	d="
M128.468658,441.000000 
	C127.492027,439.587646 127.210938,438.036407 126.443634,436.782776 
	C81.896622,364.000580 63.510651,285.011902 71.307701,200.160339 
	C77.102219,137.101425 98.109901,79.190132 133.079315,26.371929 
	C134.170929,24.723156 135.324936,23.115700 136.814377,20.961849 
	C138.251556,22.558201 139.451675,23.850363 140.607422,25.181068 
	C161.973724,49.781876 185.399155,72.229202 210.942612,92.463066 
	C217.510345,97.665573 218.955978,104.760010 214.905548,112.408867 
	C203.457520,134.027435 194.581207,156.683319 190.072800,180.711288 
	C170.990814,282.410583 200.007034,368.171417 276.296143,437.999298 
	C277.155884,438.786285 278.037750,439.549133 278.954651,440.661621 
	C265.979095,441.000000 252.958206,441.000000 239.702423,440.667694 
	C235.479630,429.435089 228.983459,420.388947 219.420319,413.725067 
	C211.899551,408.484344 203.637802,406.207886 194.427811,407.955627 
	C178.296188,411.016815 164.576187,426.364655 165.000000,441.000000 
	C152.979111,441.000000 140.958206,441.000000 128.468658,441.000000 
M114.340797,114.818481 
	C113.036957,119.800323 111.374146,124.719704 110.494469,129.775345 
	C107.474678,147.130325 114.747734,159.817703 131.194870,166.060242 
	C134.744781,167.407639 138.493530,168.412415 142.240585,169.025879 
	C154.339310,171.006653 163.831360,166.594360 170.554779,156.474289 
	C178.783676,144.088135 181.476471,129.538879 186.785233,115.577103 
	C164.716217,108.138931 143.236313,100.899307 121.523071,93.581039 
	C119.078873,100.868591 116.862877,107.475731 114.340797,114.818481 
M113.580383,259.819183 
	C119.472252,258.878052 125.339340,257.719482 131.261520,257.044464 
	C141.278244,255.902740 151.329803,255.066833 161.608353,254.079117 
	C160.978882,247.682251 160.416199,241.964096 159.805115,235.754044 
	C143.729019,237.424271 128.110504,238.464645 112.696198,240.833679 
	C100.483269,242.710709 93.738327,251.678650 92.931587,264.384705 
	C91.837608,281.614929 98.119331,294.531799 109.711792,298.553070 
	C112.039146,299.360413 114.614670,300.118408 117.010788,299.953705 
	C133.045395,298.851410 149.062424,297.493073 165.514557,296.183624 
	C164.926102,289.766754 164.400665,284.037323 163.824570,277.755249 
	C157.039383,278.369110 150.632858,279.023071 144.213745,279.511414 
	C135.266663,280.192017 126.309479,281.212158 117.357933,281.198822 
	C111.181961,281.189636 107.957039,277.929810 106.918190,272.982971 
	C105.675491,267.065430 107.246246,263.659027 113.580383,259.819183 
M131.339996,225.245789 
	C132.252106,224.048126 133.791885,222.938293 133.973785,221.638443 
	C135.095734,213.621307 135.911606,205.561325 136.860077,197.245163 
	C141.861832,197.838226 146.231216,198.356323 150.806946,198.898865 
	C149.727798,209.151047 148.709839,218.821747 147.664444,228.753281 
	C152.255417,229.248734 156.170258,229.671219 160.533295,230.142075 
	C162.321793,213.964615 164.066956,198.179260 165.852570,182.027985 
	C142.846146,179.474548 120.389503,176.982132 97.449432,174.436050 
	C95.599335,191.061050 93.805328,207.182007 91.969551,223.678375 
	C96.517433,224.169968 100.549164,224.605774 104.846550,225.070297 
	C106.077362,214.485413 107.243408,204.457596 108.448326,194.095474 
	C113.762840,194.716492 118.638763,195.286255 123.738708,195.882187 
	C122.728745,205.598709 121.776543,214.759491 120.801895,224.136246 
	C124.467995,224.527496 127.441505,224.844849 131.339996,225.245789 
M179.405365,373.003540 
	C185.128052,378.970612 187.189209,386.589417 188.672318,394.727692 
	C192.338150,393.271362 195.694656,392.227692 198.726135,390.584412 
	C199.865082,389.967010 201.116257,387.748932 200.843277,386.615265 
	C198.225723,375.744049 193.591690,365.868103 184.983917,358.367523 
	C178.626923,352.828217 171.479019,351.493591 163.687851,355.289978 
	C155.961060,359.054962 152.191711,365.222046 152.932297,373.812195 
	C153.374344,378.939453 154.400864,384.013885 154.956619,389.134613 
	C155.368134,392.926239 155.098373,396.702942 150.707443,398.208801 
	C146.196442,399.755798 143.489731,396.710297 142.037003,393.378326 
	C139.153961,386.765991 136.982483,379.843414 134.373703,372.654297 
	C131.612717,373.707153 127.703819,375.022827 123.980598,376.740875 
	C123.053429,377.168701 122.007233,379.069977 122.232071,379.999969 
	C125.045708,391.638306 129.447327,402.552216 138.474503,410.888855 
	C145.491699,417.369293 153.882950,418.184784 162.491776,413.658264 
	C170.591156,409.399597 173.856384,402.649231 172.451691,392.781799 
	C171.772156,388.008148 170.618225,383.287354 170.186310,378.496857 
	C169.632263,372.351440 173.163071,370.065430 179.405365,373.003540 
M138.887909,341.347076 
	C146.814606,338.999268 154.741302,336.651428 163.016449,334.200409 
	C164.784973,339.748962 166.426697,344.899689 168.151459,350.310944 
	C172.676239,348.923615 176.728287,347.681244 181.047989,346.356812 
	C175.934265,329.384949 170.974365,312.923584 165.960709,296.283875 
	C161.232254,297.785004 157.305878,299.031494 153.100204,300.366669 
	C154.678055,305.856964 156.168930,311.044647 157.740646,316.513611 
	C139.890457,321.891693 122.563423,327.112183 104.946785,332.419891 
	C106.803047,338.477844 108.532806,344.122925 110.307579,349.914948 
	C119.959953,347.042603 129.047699,344.338257 138.887909,341.347076 
z"/>
<path fill="#E2021A" opacity="1.000000" stroke="none" 
	d="
M383.531372,1.000000 
	C384.110138,2.652204 384.317322,4.304450 384.316589,5.956604 
	C384.272247,106.402504 384.210846,206.848389 384.151245,307.294281 
	C384.150146,309.106689 384.151093,310.919067 384.151093,313.451721 
	C338.240601,313.451721 292.732574,313.451721 246.916092,313.451721 
	C246.831497,312.489838 246.646240,311.368439 246.646576,310.247101 
	C246.677414,207.469299 246.722443,104.691505 246.883270,1.456852 
	C253.021149,1.000000 259.042297,1.000000 265.637756,1.458908 
	C266.212067,12.864335 266.212067,23.810854 266.212067,34.299408 
	C284.154144,34.299408 301.425995,34.725063 318.662384,34.127804 
	C327.895477,33.807869 336.618134,30.336136 344.111694,24.724895 
	C352.118896,18.729023 358.394012,11.376808 360.000000,1.000000 
	C367.687592,1.000000 375.375153,1.000000 383.531372,1.000000 
M274.978363,234.510162 
	C281.848297,255.033539 288.825806,275.522095 295.489258,296.112305 
	C296.693298,299.832672 298.410248,300.958984 302.191589,300.845764 
	C311.346344,300.571686 320.519836,300.582855 329.675415,300.843140 
	C333.292419,300.945953 334.913574,299.761139 336.073273,296.318573 
	C347.818268,261.452820 359.740173,226.646683 371.594757,191.817795 
	C372.056305,190.461823 372.339935,189.045288 372.822723,187.216522 
	C363.660004,187.216522 355.008881,187.353882 346.366028,187.145920 
	C343.111359,187.067612 341.776001,188.146133 340.906097,191.323776 
	C336.028076,209.142334 330.901123,226.892868 325.832001,244.658905 
	C322.920471,254.863129 319.957642,265.052734 316.710358,276.315613 
	C315.897339,273.820496 315.404327,272.466370 315.013214,271.083466 
	C307.539368,244.657120 300.117279,218.215942 292.521820,191.824661 
	C292.025787,190.101044 290.268524,187.482819 289.015259,187.434708 
	C279.419067,187.066452 269.802338,187.232529 259.184875,187.232529 
	C264.554291,203.278076 269.653229,218.515305 274.978363,234.510162 
M286.097809,101.500000 
	C286.097809,123.587128 286.097809,145.674255 286.097809,167.787277 
	C296.506256,167.787277 306.218018,167.787277 316.455505,167.787277 
	C316.455505,152.641983 316.455505,137.898270 316.455505,122.586029 
	C331.220154,122.586029 345.458435,122.586029 359.726746,122.586029 
	C359.726746,115.238823 359.726746,108.480621 359.726746,101.137642 
	C345.228180,101.137642 331.003937,101.137642 316.252747,101.137642 
	C316.252747,93.938362 316.438416,87.309540 316.179230,80.698151 
	C316.036652,77.060982 317.453278,76.190132 320.818634,76.242706 
	C331.473999,76.409187 342.133667,76.304108 352.791656,76.304047 
	C355.718903,76.304024 358.646149,76.304039 361.615112,76.304039 
	C361.615112,68.817078 361.615112,62.097919 361.615112,55.325150 
	C336.358215,55.325150 311.472260,55.325150 286.097900,55.325150 
	C286.097900,70.603020 286.097900,85.551506 286.097809,101.500000 
z"/>
<path fill="#FEFEFE" opacity="1.000000" stroke="none" 
	d="
M766.000000,1.000000 
	C800.975647,1.000000 835.951294,1.000000 870.933350,1.000004 
	C870.939758,147.666672 870.939758,294.333344 870.939758,441.000000 
	C843.232117,441.000000 815.584717,441.000000 787.624146,440.696716 
	C847.852661,337.253326 860.317627,228.500137 824.818481,114.391869 
	C811.996155,73.175652 791.501648,35.739975 766.000000,1.000000 
z"/>
<path fill="#070603" opacity="1.000000" stroke="none" 
	d="
M765.533142,1.000000 
	C791.501648,35.739975 811.996155,73.175652 824.818481,114.391869 
	C860.317627,228.500137 847.852661,337.253326 787.155457,440.696716 
	C782.643127,441.000000 778.286194,441.000000 773.464661,441.000000 
	C773.501160,439.477417 773.729431,437.788269 774.542542,436.456116 
	C818.521790,364.401123 837.059082,286.220581 829.639893,202.236084 
	C823.174866,129.051971 796.948730,63.286106 752.288208,4.909455 
	C751.479614,3.852590 750.703491,2.770951 749.956116,1.350437 
	C755.022095,1.000000 760.044189,1.000000 765.533142,1.000000 
z"/>
<path fill="#DF001A" opacity="1.000000" stroke="none" 
	d="
M216.531342,1.000000 
	C216.932037,24.934326 216.863724,48.868652 216.796890,72.802979 
	C216.791412,74.763359 216.796143,76.723778 216.796143,80.324966 
	C186.940491,56.444344 161.050461,30.581640 138.090149,1.326122 
	C164.020889,1.000000 190.041794,1.000000 216.531342,1.000000 
z"/>
<path fill="#FFDA00" opacity="1.000000" stroke="none" 
	d="
M359.531342,1.000000 
	C358.394012,11.376808 352.118896,18.729023 344.111694,24.724895 
	C336.618134,30.336136 327.895477,33.807869 318.662384,34.127804 
	C301.425995,34.725063 284.154144,34.299408 266.212067,34.299408 
	C266.212067,23.810854 266.212067,12.864335 266.106018,1.458908 
	C275.020905,1.000000 284.041779,1.000000 293.414398,1.452335 
	C293.766113,5.467865 293.766113,9.031059 293.766113,13.267049 
	C300.202484,12.938581 305.970734,12.982350 311.644592,12.272058 
	C319.342834,11.308344 325.715546,7.742423 330.000000,1.000000 
	C339.687561,1.000000 349.375122,1.000000 359.531342,1.000000 
z"/>
<path fill="#050400" opacity="1.000000" stroke="none" 
	d="
M719.531372,0.999998 
	C719.322449,2.523793 719.010132,4.409914 717.912170,5.516499 
	C703.671814,19.868481 689.319885,34.109703 674.572998,48.738277 
	C673.094299,49.400452 672.038818,49.703220 670.983276,50.005970 
	C660.291809,38.894989 649.600281,27.784023 638.762207,16.520777 
	C641.078613,14.378011 644.082092,11.599666 647.416321,8.515347 
	C653.994690,15.167448 660.951050,22.201767 667.973999,29.303427 
	C671.565369,25.656382 674.682312,22.491137 677.899719,19.223862 
	C672.363647,13.302247 666.846069,7.400482 661.664307,1.249358 
	C667.354919,1.000000 672.709900,1.000000 678.619263,1.326450 
	C681.782410,4.523158 684.390991,7.393416 687.288635,10.581732 
	C690.732361,6.793929 693.366211,3.896970 696.000000,1.000006 
	C703.687561,1.000000 711.375183,1.000000 719.531372,0.999998 
z"/>
<path fill="#050400" opacity="1.000000" stroke="none" 
	d="
M165.467941,441.000000 
	C164.576187,426.364655 178.296188,411.016815 194.427811,407.955627 
	C203.637802,406.207886 211.899551,408.484344 219.420319,413.725067 
	C228.983459,420.388947 235.479630,429.435089 239.233765,440.667694 
	C234.643097,441.000000 230.286194,441.000000 225.374603,440.665497 
	C222.496597,437.119324 220.624832,433.418854 217.770447,430.782104 
	C206.459778,420.333862 186.382721,426.359650 183.000000,441.000000 
	C177.311966,441.000000 171.623917,441.000000 165.467941,441.000000 
z"/>
<path fill="#060500" opacity="1.000000" stroke="none" 
	d="
M658.467957,441.000000 
	C665.959900,429.283081 675.299072,419.089630 690.038086,416.644226 
	C694.348083,415.929138 699.456421,416.941925 703.559753,418.675446 
	C713.643799,422.935699 721.413879,430.070038 725.996277,440.640381 
	C718.645752,441.000000 711.291504,441.000000 703.348389,440.678894 
	C692.762817,432.463440 682.678894,432.705444 676.000000,441.000000 
	C670.311951,441.000000 664.623962,441.000000 658.467957,441.000000 
z"/>
<path fill="#FAD800" opacity="1.000000" stroke="none" 
	d="
M183.468658,441.000000 
	C186.382721,426.359650 206.459778,420.333862 217.770447,430.782104 
	C220.624832,433.418854 222.496597,437.119324 224.909958,440.665497 
	C211.312439,441.000000 197.624878,441.000000 183.468658,441.000000 
z"/>
<path fill="#E2031A" opacity="1.000000" stroke="none" 
	d="
M329.531342,1.000000 
	C325.715546,7.742423 319.342834,11.308344 311.644592,12.272058 
	C305.970734,12.982350 300.202484,12.938581 293.766113,13.267049 
	C293.766113,9.031059 293.766113,5.467865 293.883057,1.452335 
	C305.687561,1.000000 317.375122,1.000000 329.531342,1.000000 
z"/>
<path fill="#090700" opacity="1.000000" stroke="none" 
	d="
M639.531494,0.999995 
	C637.982239,4.875640 635.964539,8.751290 633.385193,13.705700 
	C627.985901,9.297500 623.364929,5.524786 618.872009,1.376036 
	C625.687622,1.000000 632.375305,1.000000 639.531494,0.999995 
z"/>
<path fill="#F7D600" opacity="1.000000" stroke="none" 
	d="
M676.468628,441.000000 
	C682.678894,432.705444 692.762817,432.463440 702.879761,440.678894 
	C694.312439,441.000000 685.624817,441.000000 676.468628,441.000000 
z"/>
<path fill="#F5D400" opacity="1.000000" stroke="none" 
	d="
M695.532410,1.000006 
	C693.366211,3.896970 690.732361,6.793929 687.288635,10.581732 
	C684.390991,7.393416 681.782410,4.523158 679.086914,1.326450 
	C684.354919,1.000000 689.709900,1.000000 695.532410,1.000006 
z"/>
<path fill="#060500" opacity="1.000000" stroke="none" 
	d="
M671.111633,50.315975 
	C672.038818,49.703220 673.094299,49.400452 674.480835,49.073917 
	C677.402344,48.592167 680.113770,48.479408 682.564331,47.621483 
	C701.874573,40.861206 721.135010,33.958580 740.883972,26.931370 
	C744.853149,33.556755 748.763062,40.083324 753.012329,47.176296 
	C740.418823,58.220230 727.841248,69.250206 715.263611,80.280190 
	C715.434326,80.699104 715.605042,81.118019 715.775757,81.536934 
	C731.234131,75.615112 746.692566,69.693291 762.749084,63.542362 
	C766.745850,70.237846 770.713318,76.884071 774.917480,83.926987 
	C757.850952,100.023506 740.932434,115.980476 723.649231,132.281357 
	C720.330200,126.758194 717.276733,121.676888 713.979187,116.189354 
	C726.745422,105.356438 739.387756,94.628601 752.030151,83.900757 
	C751.821289,83.502884 751.612427,83.105003 751.403503,82.707123 
	C735.997742,88.544891 720.591919,94.382652 704.637146,100.428444 
	C700.680908,93.828239 696.784363,87.327629 692.684326,80.487473 
	C705.183777,69.549347 717.546814,58.730602 729.909851,47.911854 
	C729.772339,47.591331 729.634827,47.270809 729.497375,46.950287 
	C727.755615,47.421013 725.957153,47.743649 724.281250,48.386063 
	C711.689514,53.213013 699.094482,58.034008 686.569763,63.030552 
	C684.019714,64.047844 682.421631,63.967178 680.640991,61.636333 
	C677.715698,57.807022 674.394348,54.280281 671.111633,50.315975 
z"/>
<path fill="#050500" opacity="1.000000" stroke="none" 
	d="
M762.884277,178.880356 
	C754.152222,181.296616 745.814026,183.618973 737.470642,185.922806 
	C737.173828,186.004776 736.826477,185.903641 735.566650,185.842194 
	C732.413696,173.444855 728.564758,160.888916 726.180847,148.060730 
	C724.500671,139.018875 728.693542,132.583496 735.704285,129.626465 
	C744.266174,126.015167 750.787231,127.699722 757.505432,135.292496 
	C764.872620,124.841156 776.615356,120.009041 786.537292,111.734444 
	C788.221619,117.694481 789.858948,122.737465 790.948486,127.896149 
	C791.205872,129.114868 789.978577,131.200638 788.820496,132.067139 
	C784.292297,135.455109 779.370911,138.320724 774.871521,141.743210 
	C768.898071,146.287018 768.268188,149.760773 771.614807,157.295517 
	C779.980408,155.000198 788.413757,152.686295 797.312805,150.244598 
	C798.990845,156.166336 800.559814,161.703415 802.288818,167.805069 
	C789.125183,171.509476 776.201172,175.146439 762.884277,178.880356 
M741.984924,159.413940 
	C742.523132,161.251358 743.061340,163.088760 743.679749,165.200043 
	C748.927185,163.690308 753.618347,162.340622 758.469482,160.944916 
	C757.808777,158.416473 757.379517,156.481995 756.796814,154.594894 
	C754.474854,147.075668 751.387756,144.362625 746.555969,145.509964 
	C741.420715,146.729370 740.064880,150.472382 741.984924,159.413940 
z"/>
<path fill="#050500" opacity="1.000000" stroke="none" 
	d="
M790.511841,274.621857 
	C785.497375,272.593781 780.871277,270.097809 775.961731,269.257111 
	C764.814087,267.348328 753.525696,266.264160 742.298767,264.811737 
	C741.182068,264.667267 740.094788,264.295746 738.552856,263.923004 
	C739.301941,258.032867 740.028503,252.320236 740.816162,246.126648 
	C752.206787,247.573853 763.219177,248.961105 774.227661,250.378632 
	C777.694153,250.825027 781.161743,251.283966 784.609192,251.855255 
	C798.249207,254.115570 806.209351,262.355011 806.547058,276.142365 
	C806.706360,282.648315 805.570129,289.493347 803.506104,295.679321 
	C799.760986,306.903381 790.469238,312.800293 778.686218,311.654663 
	C763.633606,310.191101 748.657593,307.939209 733.108276,305.958221 
	C733.859619,299.943390 734.570068,294.255768 735.373657,287.822845 
	C742.605713,288.725616 749.610229,289.654297 756.628723,290.461792 
	C764.724915,291.393250 772.824341,292.818237 780.938721,292.939331 
	C791.465637,293.096405 796.071594,284.130585 790.511841,274.621857 
z"/>
<path fill="#060500" opacity="1.000000" stroke="none" 
	d="
M738.086487,210.895950 
	C737.634155,204.478317 737.209717,198.526764 736.743835,191.994370 
	C741.112671,191.624634 745.144104,191.283447 749.602844,190.906082 
	C750.428406,201.066818 751.217407,210.777313 752.049133,221.013763 
	C756.814636,220.611237 761.193726,220.241364 766.055481,219.830704 
	C765.361694,210.415207 764.693909,201.351715 763.966797,191.483505 
	C768.241943,191.198380 772.275635,190.929367 776.836121,190.625214 
	C777.625061,200.132584 778.387817,209.324280 779.182861,218.905243 
	C784.327515,218.505386 789.068176,218.136948 794.496399,217.715057 
	C793.785706,207.430115 793.093079,197.405472 792.343811,186.562408 
	C796.536987,186.283173 800.566345,186.014847 805.239258,185.703674 
	C806.509460,202.229752 807.751038,218.383392 809.033997,235.075211 
	C786.099487,236.818695 763.595154,238.529495 740.429138,240.290588 
	C739.639832,230.426682 738.877075,220.894363 738.086487,210.895950 
z"/>
<path fill="#060500" opacity="1.000000" stroke="none" 
	d="
M749.448059,368.507263 
	C737.957703,364.463654 726.828552,360.575043 715.279236,356.539612 
	C720.670532,341.080139 725.911499,326.051910 731.254944,310.729767 
	C735.444641,312.212219 739.169739,313.530304 743.467834,315.051117 
	C740.197205,324.508301 737.016113,333.706635 733.635010,343.483276 
	C738.012634,345.035675 742.170227,346.510040 746.919800,348.194336 
	C750.070862,339.352539 753.173218,330.647430 756.465454,321.409332 
	C760.560730,322.818481 764.388733,324.135651 768.642700,325.599396 
	C765.528931,334.632111 762.561584,343.240204 759.398010,352.417389 
	C764.252380,354.146576 768.842773,355.781708 773.905762,357.585205 
	C777.413696,347.689301 780.785889,338.176270 784.317444,328.213745 
	C788.410889,329.629883 792.254272,330.959503 796.593750,332.460754 
	C791.108398,348.149445 785.749023,363.477783 780.244812,379.220367 
	C769.857422,375.616974 759.833313,372.139587 749.448059,368.507263 
z"/>
<path fill="#060500" opacity="1.000000" stroke="none" 
	d="
M703.247437,378.247009 
	C706.880432,371.896118 710.331909,365.865479 713.970398,359.508179 
	C717.801147,361.681519 721.233948,363.629089 725.208862,365.884155 
	C720.745361,373.798523 716.370911,381.554993 711.616943,389.984314 
	C715.905884,392.434418 720.125061,394.844666 724.678345,397.445740 
	C729.071411,389.742340 733.260132,382.397247 737.801941,374.433044 
	C741.516479,376.527618 745.053284,378.522003 749.055054,380.778564 
	C744.742554,388.459991 740.543701,395.939087 736.088257,403.875122 
	C743.993958,408.415192 751.752319,412.870605 760.016968,417.616791 
	C757.029358,422.899811 754.138733,428.011322 751.026978,433.513824 
	C730.999023,422.135040 711.368164,410.981812 691.202942,399.525055 
	C695.257874,392.361389 699.161865,385.464325 703.247437,378.247009 
z"/>
<path fill="#F6F6F6" opacity="1.000000" stroke="none" 
	d="
M202.126617,186.150192 
	C205.540085,170.516968 209.662292,155.550919 216.569336,141.404282 
	C216.569336,204.872299 216.569336,268.340332 216.569336,331.841003 
	C200.482437,311.760345 192.858490,235.331650 202.126617,186.150192 
z"/>
<path fill="#050400" opacity="1.000000" stroke="none" 
	d="
M114.493835,114.450684 
	C116.862877,107.475731 119.078873,100.868591 121.523071,93.581039 
	C143.236313,100.899307 164.716217,108.138931 186.785233,115.577103 
	C181.476471,129.538879 178.783676,144.088135 170.554779,156.474289 
	C163.831360,166.594360 154.339310,171.006653 142.240585,169.025879 
	C138.493530,168.412415 134.744781,167.407639 131.194870,166.060242 
	C114.747734,159.817703 107.474678,147.130325 110.494469,129.775345 
	C111.374146,124.719704 113.036957,119.800323 114.493835,114.450684 
M134.966446,117.454422 
	C132.950577,116.809853 130.934708,116.165283 128.985046,115.541885 
	C123.318184,127.358337 123.344749,136.413666 128.858856,142.577560 
	C134.444168,148.821030 146.154694,152.179138 153.545944,149.385254 
	C163.030838,145.799957 165.264725,137.281754 167.802582,128.546143 
	C156.761795,124.831398 146.239151,121.290993 134.966446,117.454422 
z"/>
<path fill="#050400" opacity="1.000000" stroke="none" 
	d="
M113.219002,259.960815 
	C107.246246,263.659027 105.675491,267.065430 106.918190,272.982971 
	C107.957039,277.929810 111.181961,281.189636 117.357933,281.198822 
	C126.309479,281.212158 135.266663,280.192017 144.213745,279.511414 
	C150.632858,279.023071 157.039383,278.369110 163.824570,277.755249 
	C164.400665,284.037323 164.926102,289.766754 165.514557,296.183624 
	C149.062424,297.493073 133.045395,298.851410 117.010788,299.953705 
	C114.614670,300.118408 112.039146,299.360413 109.711792,298.553070 
	C98.119331,294.531799 91.837608,281.614929 92.931587,264.384705 
	C93.738327,251.678650 100.483269,242.710709 112.696198,240.833679 
	C128.110504,238.464645 143.729019,237.424271 159.805115,235.754044 
	C160.416199,241.964096 160.978882,247.682251 161.608353,254.079117 
	C151.329803,255.066833 141.278244,255.902740 131.261520,257.044464 
	C125.339340,257.719482 119.472252,258.878052 113.219002,259.960815 
z"/>
<path fill="#060500" opacity="1.000000" stroke="none" 
	d="
M130.877502,225.203979 
	C127.441505,224.844849 124.467995,224.527496 120.801895,224.136246 
	C121.776543,214.759491 122.728745,205.598709 123.738708,195.882187 
	C118.638763,195.286255 113.762840,194.716492 108.448326,194.095474 
	C107.243408,204.457596 106.077362,214.485413 104.846550,225.070297 
	C100.549164,224.605774 96.517433,224.169968 91.969551,223.678375 
	C93.805328,207.182007 95.599335,191.061050 97.449432,174.436050 
	C120.389503,176.982132 142.846146,179.474548 165.852570,182.027985 
	C164.066956,198.179260 162.321793,213.964615 160.533295,230.142075 
	C156.170258,229.671219 152.255417,229.248734 147.664444,228.753281 
	C148.709839,218.821747 149.727798,209.151047 150.806946,198.898865 
	C146.231216,198.356323 141.861832,197.838226 136.860077,197.245163 
	C135.911606,205.561325 135.095734,213.621307 133.973785,221.638443 
	C133.791885,222.938293 132.252106,224.048126 130.877502,225.203979 
z"/>
<path fill="#050500" opacity="1.000000" stroke="none" 
	d="
M179.122177,372.767944 
	C173.163071,370.065430 169.632263,372.351440 170.186310,378.496857 
	C170.618225,383.287354 171.772156,388.008148 172.451691,392.781799 
	C173.856384,402.649231 170.591156,409.399597 162.491776,413.658264 
	C153.882950,418.184784 145.491699,417.369293 138.474503,410.888855 
	C129.447327,402.552216 125.045708,391.638306 122.232071,379.999969 
	C122.007233,379.069977 123.053429,377.168701 123.980598,376.740875 
	C127.703819,375.022827 131.612717,373.707153 134.373703,372.654297 
	C136.982483,379.843414 139.153961,386.765991 142.037003,393.378326 
	C143.489731,396.710297 146.196442,399.755798 150.707443,398.208801 
	C155.098373,396.702942 155.368134,392.926239 154.956619,389.134613 
	C154.400864,384.013885 153.374344,378.939453 152.932297,373.812195 
	C152.191711,365.222046 155.961060,359.054962 163.687851,355.289978 
	C171.479019,351.493591 178.626923,352.828217 184.983917,358.367523 
	C193.591690,365.868103 198.225723,375.744049 200.843277,386.615265 
	C201.116257,387.748932 199.865082,389.967010 198.726135,390.584412 
	C195.694656,392.227692 192.338150,393.271362 188.672318,394.727692 
	C187.189209,386.589417 185.128052,378.970612 179.122177,372.767944 
z"/>
<path fill="#060500" opacity="1.000000" stroke="none" 
	d="
M138.511673,341.490509 
	C129.047699,344.338257 119.959953,347.042603 110.307579,349.914948 
	C108.532806,344.122925 106.803047,338.477844 104.946785,332.419891 
	C122.563423,327.112183 139.890457,321.891693 157.740646,316.513611 
	C156.168930,311.044647 154.678055,305.856964 153.100204,300.366669 
	C157.305878,299.031494 161.232254,297.785004 165.960709,296.283875 
	C170.974365,312.923584 175.934265,329.384949 181.047989,346.356812 
	C176.728287,347.681244 172.676239,348.923615 168.151459,350.310944 
	C166.426697,344.899689 164.784973,339.748962 163.016449,334.200409 
	C154.741302,336.651428 146.814606,338.999268 138.511673,341.490509 
z"/>
<path fill="#FED900" opacity="1.000000" stroke="none" 
	d="
M274.865265,234.131348 
	C269.653229,218.515305 264.554291,203.278076 259.184875,187.232529 
	C269.802338,187.232529 279.419067,187.066452 289.015259,187.434708 
	C290.268524,187.482819 292.025787,190.101044 292.521820,191.824661 
	C300.117279,218.215942 307.539368,244.657120 315.013214,271.083466 
	C315.404327,272.466370 315.897339,273.820496 316.710358,276.315613 
	C319.957642,265.052734 322.920471,254.863129 325.832001,244.658905 
	C330.901123,226.892868 336.028076,209.142334 340.906097,191.323776 
	C341.776001,188.146133 343.111359,187.067612 346.366028,187.145920 
	C355.008881,187.353882 363.660004,187.216522 372.822723,187.216522 
	C372.339935,189.045288 372.056305,190.461823 371.594757,191.817795 
	C359.740173,226.646683 347.818268,261.452820 336.073273,296.318573 
	C334.913574,299.761139 333.292419,300.945953 329.675415,300.843140 
	C320.519836,300.582855 311.346344,300.571686 302.191589,300.845764 
	C298.410248,300.958984 296.693298,299.832672 295.489258,296.112305 
	C288.825806,275.522095 281.848297,255.033539 274.865265,234.131348 
z"/>
<path fill="#FFDA00" opacity="1.000000" stroke="none" 
	d="
M286.097839,101.000000 
	C286.097900,85.551506 286.097900,70.603020 286.097900,55.325150 
	C311.472260,55.325150 336.358215,55.325150 361.615112,55.325150 
	C361.615112,62.097919 361.615112,68.817078 361.615112,76.304039 
	C358.646149,76.304039 355.718903,76.304024 352.791656,76.304047 
	C342.133667,76.304108 331.473999,76.409187 320.818634,76.242706 
	C317.453278,76.190132 316.036652,77.060982 316.179230,80.698151 
	C316.438416,87.309540 316.252747,93.938362 316.252747,101.137642 
	C331.003937,101.137642 345.228180,101.137642 359.726746,101.137642 
	C359.726746,108.480621 359.726746,115.238823 359.726746,122.586029 
	C345.458435,122.586029 331.220154,122.586029 316.455505,122.586029 
	C316.455505,137.898270 316.455505,152.641983 316.455505,167.787277 
	C306.218018,167.787277 296.506256,167.787277 286.097809,167.787277 
	C286.097809,145.674255 286.097809,123.587128 286.097839,101.000000 
z"/>
<path fill="#F6D500" opacity="1.000000" stroke="none" 
	d="
M741.901062,159.003052 
	C740.064880,150.472382 741.420715,146.729370 746.555969,145.509964 
	C751.387756,144.362625 754.474854,147.075668 756.796814,154.594894 
	C757.379517,156.481995 757.808777,158.416473 758.469482,160.944916 
	C753.618347,162.340622 748.927185,163.690308 743.679749,165.200043 
	C743.061340,163.088760 742.523132,161.251358 741.901062,159.003052 
z"/>
<path fill="#FBD900" opacity="1.000000" stroke="none" 
	d="
M135.341492,117.602501 
	C146.239151,121.290993 156.761795,124.831398 167.802582,128.546143 
	C165.264725,137.281754 163.030838,145.799957 153.545944,149.385254 
	C146.154694,152.179138 134.444168,148.821030 128.858856,142.577560 
	C123.344749,136.413666 123.318184,127.358337 128.985046,115.541885 
	C130.934708,116.165283 132.950577,116.809853 135.341492,117.602501 
z"/>
</svg>